<svg xmlns="http://www.w3.org/2000/svg" xmlns:xlink="http://www.w3.org/1999/xlink" width="400" zoomAndPan="magnify" viewBox="0 0 300 299.999988" height="400" preserveAspectRatio="xMidYMid meet" version="1.0"><path fill="#84d0f7" d="M 293.167969 149.695312 C 293.171875 153.847656 292.996094 157.996094 292.640625 162.132812 C 292.28125 166.273438 291.742188 170.386719 291.023438 174.476562 C 290.304688 178.570312 289.40625 182.621094 288.332031 186.632812 C 287.257812 190.648438 286.011719 194.605469 284.589844 198.507812 C 283.167969 202.410156 281.578125 206.246094 279.820312 210.007812 C 278.0625 213.773438 276.144531 217.453125 274.0625 221.046875 C 271.984375 224.644531 269.75 228.140625 267.363281 231.539062 C 264.976562 234.941406 262.445312 238.230469 259.769531 241.40625 C 256.351562 245.457031 252.726562 249.3125 248.894531 252.972656 L 52.734375 252.972656 C 49.003906 249.722656 45.488281 246.257812 42.1875 242.578125 C 41.894531 242.25 41.578125 241.875 41.214844 241.40625 C 33.011719 231.644531 6.46875 197.039062 7.839844 149.695312 C 9.75 84.105469 64.898438 7.03125 150.515625 7.03125 C 152.851562 7.03125 155.183594 7.089844 157.515625 7.203125 C 159.847656 7.316406 162.175781 7.488281 164.5 7.71875 C 166.820312 7.945312 169.140625 8.234375 171.449219 8.574219 C 173.757812 8.917969 176.058594 9.316406 178.347656 9.773438 C 180.636719 10.226562 182.914062 10.738281 185.179688 11.308594 C 187.445312 11.875 189.691406 12.496094 191.925781 13.175781 C 194.160156 13.851562 196.378906 14.585938 198.574219 15.371094 C 200.773438 16.15625 202.953125 16.996094 205.109375 17.890625 C 207.265625 18.785156 209.398438 19.730469 211.511719 20.730469 C 213.621094 21.726562 215.707031 22.777344 217.765625 23.878906 C 219.824219 24.976562 221.855469 26.128906 223.855469 27.328125 C 225.859375 28.527344 227.832031 29.777344 229.773438 31.074219 C 231.714844 32.371094 233.621094 33.714844 235.496094 35.105469 C 237.371094 36.496094 239.210938 37.933594 241.015625 39.414062 C 242.820312 40.894531 244.589844 42.421875 246.320312 43.988281 C 248.050781 45.558594 249.738281 47.167969 251.390625 48.816406 C 253.042969 50.46875 254.648438 52.160156 256.21875 53.890625 C 257.785156 55.617188 259.308594 57.386719 260.792969 59.191406 C 262.273438 60.996094 263.707031 62.835938 265.097656 64.710938 C 266.488281 66.585938 267.832031 68.496094 269.128906 70.4375 C 270.429688 72.378906 271.675781 74.347656 272.875 76.351562 C 274.078125 78.355469 275.226562 80.386719 276.328125 82.445312 C 277.429688 84.503906 278.476562 86.589844 279.476562 88.699219 C 280.472656 90.808594 281.417969 92.945312 282.3125 95.101562 C 283.207031 97.257812 284.046875 99.4375 284.832031 101.632812 C 285.617188 103.832031 286.351562 106.046875 287.027344 108.28125 C 287.707031 110.515625 288.328125 112.765625 288.894531 115.03125 C 289.460938 117.296875 289.972656 119.574219 290.429688 121.863281 C 290.882812 124.152344 291.28125 126.453125 291.625 128.761719 C 291.96875 131.070312 292.253906 133.386719 292.480469 135.710938 C 292.710938 138.035156 292.882812 140.363281 292.996094 142.695312 C 293.109375 145.027344 293.167969 147.359375 293.167969 149.695312 Z M 293.167969 149.695312 " fill-opacity="1" fill-rule="nonzero"/><path fill="#aa392d" d="M 259.769531 241.40625 C 256.355469 245.457031 252.730469 249.308594 248.894531 252.960938 C 245.617188 256.089844 242.199219 259.054688 238.640625 261.855469 C 235.078125 264.65625 231.394531 267.28125 227.585938 269.730469 C 223.773438 272.179688 219.855469 274.441406 215.828125 276.515625 C 211.800781 278.589844 207.683594 280.46875 203.480469 282.148438 C 199.273438 283.832031 194.996094 285.308594 190.648438 286.582031 C 186.300781 287.855469 181.902344 288.917969 177.453125 289.769531 C 173.003906 290.621094 168.527344 291.261719 164.015625 291.6875 C 159.507812 292.109375 154.988281 292.320312 150.457031 292.3125 C 104.074219 292.3125 69.339844 267.703125 52.722656 252.960938 C 49.007812 249.707031 45.496094 246.246094 42.1875 242.578125 C 41.90625 242.238281 41.566406 241.875 41.238281 241.40625 C 57.140625 225.363281 78.5625 212.90625 103.21875 205.851562 C 110.132812 223.03125 128.695312 235.335938 150.46875 235.335938 C 170.71875 235.335938 188.167969 224.71875 196.054688 209.449219 C 196.675781 208.277344 197.226562 207.105469 197.71875 205.851562 C 198.1875 205.980469 198.46875 206.050781 199.066406 206.238281 C 223.195312 213.363281 244.148438 225.667969 259.769531 241.40625 Z M 259.769531 241.40625 " fill-opacity="1" fill-rule="nonzero"/><path fill="#7c211a" d="M 197.730469 205.839844 C 197.238281 207.011719 196.6875 208.253906 196.066406 209.4375 C 188.179688 224.671875 170.730469 235.324219 150.480469 235.324219 C 128.707031 235.324219 110.144531 223.019531 103.230469 205.839844 L 106.347656 204.972656 L 106.605469 204.902344 C 106.605469 204.902344 108.691406 204.351562 110.613281 203.917969 C 111.515625 205.78125 112.546875 207.570312 113.699219 209.289062 C 114.855469 211.007812 116.125 212.636719 117.507812 214.175781 C 118.890625 215.714844 120.371094 217.152344 121.957031 218.484375 C 123.539062 219.816406 125.207031 221.03125 126.964844 222.128906 C 128.71875 223.230469 130.539062 224.199219 132.429688 225.042969 C 134.320312 225.886719 136.257812 226.59375 138.25 227.164062 C 140.238281 227.738281 142.257812 228.167969 144.308594 228.457031 C 146.355469 228.742188 148.417969 228.886719 150.488281 228.886719 C 152.554688 228.886719 154.617188 228.742188 156.664062 228.457031 C 158.714844 228.167969 160.734375 227.738281 162.722656 227.164062 C 164.714844 226.59375 166.652344 225.886719 168.542969 225.042969 C 170.433594 224.199219 172.253906 223.230469 174.007812 222.128906 C 175.765625 221.03125 177.433594 219.816406 179.015625 218.484375 C 180.601562 217.152344 182.082031 215.714844 183.464844 214.175781 C 184.847656 212.636719 186.117188 211.007812 187.273438 209.289062 C 188.425781 207.570312 189.457031 205.78125 190.359375 203.917969 C 192.890625 204.269531 195.347656 204.910156 197.730469 205.839844 Z M 197.730469 205.839844 " fill-opacity="1" fill-rule="nonzero"/><path fill="#e59973" d="M 190.359375 203.90625 C 189.453125 205.765625 188.425781 207.550781 187.269531 209.265625 C 186.113281 210.980469 184.84375 212.605469 183.460938 214.140625 C 182.078125 215.675781 180.597656 217.109375 179.015625 218.4375 C 177.429688 219.769531 175.761719 220.980469 174.011719 222.074219 C 172.257812 223.171875 170.4375 224.140625 168.550781 224.980469 C 166.660156 225.824219 164.722656 226.527344 162.738281 227.097656 C 160.75 227.667969 158.734375 228.097656 156.6875 228.382812 C 154.640625 228.671875 152.582031 228.816406 150.515625 228.816406 C 148.449219 228.816406 146.390625 228.671875 144.34375 228.382812 C 142.296875 228.097656 140.28125 227.667969 138.292969 227.097656 C 136.308594 226.527344 134.371094 225.824219 132.480469 224.980469 C 130.59375 224.140625 128.773438 223.171875 127.019531 222.074219 C 125.269531 220.980469 123.601562 219.769531 122.015625 218.4375 C 120.433594 217.109375 118.953125 215.675781 117.570312 214.140625 C 116.1875 212.605469 114.917969 210.980469 113.761719 209.265625 C 112.605469 207.550781 111.578125 205.765625 110.671875 203.90625 C 112.253906 203.507812 113.835938 203.179688 115.441406 202.839844 L 116.613281 202.605469 C 116.808594 202.546875 117.007812 202.503906 117.210938 202.476562 C 117.550781 202.394531 117.890625 202.347656 118.21875 202.265625 L 119.625 202.03125 L 120.691406 201.820312 L 120.796875 201.820312 C 121.207031 200.8125 121.59375 199.722656 121.96875 198.527344 C 122.097656 198.140625 122.238281 197.695312 122.367188 197.285156 C 122.824219 195.574219 123.164062 193.957031 123.398438 192.527344 C 125.902344 194.601562 128.59375 196.394531 131.472656 197.90625 C 131.6875 198.007812 131.894531 198.121094 132.09375 198.246094 C 132.328125 198.351562 132.585938 198.480469 132.820312 198.609375 L 133.710938 199.019531 C 133.886719 199.101562 134.074219 199.171875 134.226562 199.253906 L 134.671875 199.464844 L 135.210938 199.699219 L 135.726562 199.910156 C 135.800781 199.949219 135.878906 199.980469 135.960938 200.003906 C 136.167969 200.09375 136.378906 200.171875 136.59375 200.238281 C 136.816406 200.34375 137.085938 200.449219 137.367188 200.554688 C 137.660156 200.660156 137.917969 200.765625 138.222656 200.859375 C 138.285156 200.882812 138.347656 200.902344 138.410156 200.917969 L 139.007812 201.128906 C 139.324219 201.199219 139.605469 201.304688 139.910156 201.386719 C 140.214844 201.46875 140.179688 201.457031 140.332031 201.492188 L 141.164062 201.726562 C 142.910156 202.148438 144.675781 202.457031 146.460938 202.652344 C 146.636719 202.652344 146.824219 202.652344 147 202.710938 L 150.164062 202.710938 C 154.0625 202.699219 157.855469 202.066406 161.542969 200.8125 C 161.566406 200.824219 161.589844 200.824219 161.613281 200.8125 C 161.757812 200.785156 161.898438 200.742188 162.035156 200.683594 C 162.972656 200.367188 163.792969 200.027344 164.519531 199.746094 L 165.515625 199.335938 L 165.773438 199.230469 C 169.988281 197.425781 173.839844 195.035156 177.328125 192.058594 C 177.691406 193.675781 178.125 195.386719 178.675781 197.179688 C 179.167969 198.785156 179.683594 200.296875 180.199219 201.714844 C 180.644531 201.796875 181.066406 201.855469 181.5 201.949219 L 182.777344 202.183594 L 184.042969 202.417969 L 184.980469 202.605469 C 185.191406 202.605469 185.402344 202.710938 185.601562 202.734375 C 187.21875 203.191406 188.800781 203.519531 190.359375 203.90625 Z M 190.359375 203.90625 " fill-opacity="1" fill-rule="nonzero"/><path fill="#2d2d2d" d="M 93.75 110.402344 C 92.683594 116.316406 92.292969 122.273438 92.578125 128.273438 C 92.578125 129.445312 92.707031 130.6875 92.847656 131.871094 C 92.847656 132.316406 92.917969 132.785156 92.976562 133.230469 C 90.503906 131.929688 89.460938 126.199219 87.550781 115.335938 C 86.378906 108.492188 85.734375 105.058594 85.910156 101.273438 C 86.367188 95.40625 87.960938 89.867188 90.691406 84.65625 C 91.28125 86.820312 92.203125 88.832031 93.449219 90.699219 C 94.695312 92.5625 96.207031 94.179688 97.980469 95.554688 C 96.09375 100.367188 94.683594 105.316406 93.75 110.402344 Z M 93.75 110.402344 " fill-opacity="1" fill-rule="nonzero"/><path fill="#2d2d2d" d="M 213.351562 115.335938 C 212.425781 120.632812 211.699219 124.710938 210.914062 127.617188 C 210.082031 130.78125 209.179688 132.632812 207.855469 133.253906 C 208.054688 131.378906 208.21875 129.539062 208.289062 127.675781 C 208.566406 121.878906 208.203125 116.121094 207.199219 110.402344 C 206.492188 106.484375 205.488281 102.644531 204.1875 98.882812 C 204.1875 98.882812 204.1875 98.800781 204.1875 98.777344 C 207.351562 96.671875 210.382812 94.386719 213.28125 91.921875 C 214.222656 94.980469 214.8125 98.105469 215.050781 101.296875 C 215.203125 105.082031 214.570312 108.515625 213.351562 115.335938 Z M 213.351562 115.335938 " fill-opacity="1" fill-rule="nonzero"/><path fill="#000000" d="M 199.078125 206.25 C 198.117188 207.421875 197.109375 208.429688 196.066406 209.460938 C 193.78125 211.777344 191.332031 213.90625 188.71875 215.847656 C 185.28125 218.421875 181.578125 220.527344 177.609375 222.164062 C 175.105469 223.175781 172.527344 223.9375 169.875 224.449219 C 167.53125 224.886719 165.167969 225.09375 162.785156 225.070312 C 158.085938 224.964844 153.5625 224.019531 149.214844 222.234375 C 148.953125 222.140625 148.699219 222.03125 148.453125 221.90625 C 145 220.433594 141.757812 218.589844 138.726562 216.375 C 133.019531 212.121094 128.078125 207.109375 123.902344 201.339844 C 123.222656 200.4375 122.578125 199.523438 121.921875 198.5625 C 122.050781 198.175781 122.191406 197.730469 122.320312 197.320312 C 122.777344 195.609375 123.117188 193.992188 123.351562 192.5625 C 124.03125 193.109375 124.734375 193.648438 125.460938 194.179688 C 127.367188 195.5625 129.355469 196.816406 131.425781 197.941406 C 131.640625 198.042969 131.847656 198.15625 132.046875 198.28125 C 132.28125 198.386719 132.539062 198.515625 132.773438 198.644531 L 133.664062 199.054688 C 133.839844 199.136719 134.027344 199.207031 134.179688 199.289062 L 134.625 199.5 L 135.164062 199.734375 L 135.679688 199.945312 C 135.753906 199.984375 135.832031 200.015625 135.914062 200.039062 L 136.546875 200.273438 L 137.320312 200.589844 L 138.175781 200.894531 C 138.238281 200.917969 138.300781 200.9375 138.363281 200.953125 L 138.960938 201.164062 C 139.277344 201.234375 139.558594 201.339844 139.863281 201.421875 C 140.167969 201.503906 140.132812 201.492188 140.285156 201.527344 L 141.117188 201.761719 C 142.859375 202.199219 144.625 202.507812 146.414062 202.6875 C 146.589844 202.6875 146.777344 202.6875 146.953125 202.746094 L 150.117188 202.746094 C 154.007812 202.707031 157.800781 202.074219 161.496094 200.847656 C 161.519531 200.859375 161.542969 200.859375 161.566406 200.847656 C 161.710938 200.820312 161.851562 200.777344 161.988281 200.71875 C 162.761719 200.460938 163.523438 200.167969 164.273438 199.863281 L 164.507812 199.78125 L 165.46875 199.371094 L 165.726562 199.265625 C 169.144531 197.695312 172.363281 195.789062 175.382812 193.546875 C 176.027344 193.089844 176.648438 192.585938 177.28125 192.09375 C 177.644531 193.710938 178.078125 195.421875 178.628906 197.214844 C 179.121094 198.820312 179.636719 200.332031 180.152344 201.75 C 180.597656 201.832031 181.019531 201.890625 181.453125 201.984375 L 182.730469 202.21875 L 183.996094 202.453125 L 184.933594 202.640625 C 185.144531 202.640625 185.355469 202.746094 185.554688 202.769531 C 187.171875 203.109375 188.753906 203.4375 190.3125 203.835938 C 192.796875 204.398438 195.269531 205.007812 197.683594 205.757812 Z M 199.078125 206.25 " fill-opacity="0.2" fill-rule="nonzero"/><path fill="#e59973" d="M 218.460938 140.390625 C 218.273438 146.460938 214.394531 152.613281 210.046875 154.875 C 209.460938 155.183594 208.847656 155.417969 208.207031 155.578125 C 208.160156 155.582031 208.113281 155.582031 208.066406 155.578125 C 207.289062 155.765625 206.507812 155.789062 205.722656 155.648438 C 204.863281 155.480469 204.082031 155.136719 203.378906 154.617188 L 203.050781 154.382812 C 202.570312 153.992188 202.132812 153.558594 201.738281 153.082031 C 198.609375 149.308594 197.332031 142.230469 199.394531 136.582031 C 200.25 134.367188 201.511719 132.414062 203.179688 130.722656 C 204.605469 129.199219 206.332031 128.1875 208.359375 127.6875 C 209.28125 127.496094 210.203125 127.496094 211.125 127.6875 C 216.234375 128.683594 218.613281 135.304688 218.460938 140.390625 Z M 218.460938 140.390625 " fill-opacity="1" fill-rule="nonzero"/><path fill="#000000" d="M 218.449219 140.390625 C 218.273438 146.460938 214.394531 152.613281 210.046875 154.875 C 209.460938 155.183594 208.847656 155.417969 208.207031 155.578125 C 208.160156 155.582031 208.113281 155.582031 208.066406 155.578125 C 207.289062 155.765625 206.507812 155.789062 205.722656 155.648438 C 204.863281 155.480469 204.082031 155.136719 203.378906 154.617188 L 203.050781 154.382812 C 202.570312 153.992188 202.132812 153.558594 201.738281 153.082031 C 198.609375 149.308594 197.332031 142.230469 199.394531 136.582031 C 200.25 134.367188 201.511719 132.414062 203.179688 130.722656 C 204.605469 129.199219 206.332031 128.1875 208.359375 127.6875 C 209.28125 127.496094 210.203125 127.496094 211.125 127.6875 C 216.234375 128.683594 218.613281 135.304688 218.449219 140.390625 Z M 218.449219 140.390625 " fill-opacity="0.3" fill-rule="nonzero"/><path fill="#e59973" d="M 99.269531 153.117188 C 98.789062 153.703125 98.242188 154.21875 97.628906 154.664062 C 96.921875 155.175781 96.140625 155.515625 95.285156 155.683594 C 94.5 155.824219 93.71875 155.800781 92.941406 155.613281 L 92.800781 155.613281 C 92.160156 155.453125 91.546875 155.21875 90.960938 154.910156 C 86.613281 152.648438 82.757812 146.496094 82.546875 140.425781 C 82.394531 135.339844 84.773438 128.707031 89.929688 127.6875 C 92.871094 127.101562 95.671875 128.519531 97.886719 130.734375 C 99.554688 132.425781 100.816406 134.378906 101.671875 136.59375 C 103.675781 142.265625 102.398438 149.34375 99.269531 153.117188 Z M 99.269531 153.117188 " fill-opacity="1" fill-rule="nonzero"/><path fill="#e59973" d="M 208.289062 127.734375 C 208.21875 129.597656 208.054688 131.4375 207.855469 133.3125 C 207.042969 140.53125 205.414062 147.5625 202.96875 154.40625 C 197.519531 169.722656 188.355469 183.304688 177.328125 192.175781 C 176.695312 192.667969 176.074219 193.171875 175.429688 193.628906 C 172.410156 195.871094 169.191406 197.777344 165.773438 199.347656 L 165.515625 199.453125 L 164.554688 199.863281 L 164.320312 199.945312 C 163.570312 200.25 162.808594 200.542969 162.035156 200.800781 C 161.898438 200.859375 161.757812 200.902344 161.613281 200.929688 C 161.589844 200.941406 161.566406 200.941406 161.542969 200.929688 C 157.847656 202.15625 154.054688 202.789062 150.164062 202.828125 L 147 202.828125 C 146.824219 202.828125 146.636719 202.828125 146.460938 202.769531 C 144.671875 202.589844 142.90625 202.28125 141.164062 201.84375 L 140.332031 201.609375 C 140.179688 201.609375 140.050781 201.527344 139.910156 201.503906 C 139.769531 201.480469 139.324219 201.316406 139.007812 201.246094 L 138.410156 201.035156 C 138.347656 201.019531 138.285156 201 138.222656 200.976562 L 137.367188 200.671875 L 136.59375 200.355469 L 135.960938 200.121094 C 135.878906 200.097656 135.800781 200.066406 135.726562 200.027344 L 135.210938 199.816406 L 134.671875 199.582031 L 134.226562 199.371094 C 134.074219 199.289062 133.886719 199.21875 133.710938 199.136719 L 132.820312 198.726562 C 132.585938 198.597656 132.328125 198.46875 132.09375 198.363281 C 131.894531 198.238281 131.6875 198.125 131.472656 198.023438 C 129.402344 196.898438 127.414062 195.644531 125.507812 194.261719 C 124.78125 193.730469 124.078125 193.191406 123.398438 192.644531 C 119.699219 189.679688 116.351562 186.359375 113.355469 182.683594 C 106.230469 173.902344 100.910156 164.136719 97.394531 153.386719 C 95.214844 146.867188 93.769531 140.1875 93.058594 133.347656 C 93 132.902344 92.953125 132.433594 92.929688 131.988281 C 92.789062 130.816406 92.71875 129.644531 92.660156 128.390625 C 92.375 122.390625 92.765625 116.433594 93.832031 110.519531 C 94.773438 105.433594 96.191406 100.484375 98.085938 95.671875 C 98.871094 93.621094 99.75 91.570312 100.710938 89.554688 C 103.039062 84.503906 105.878906 79.761719 109.238281 75.332031 C 112.601562 70.902344 116.398438 66.882812 120.632812 63.28125 C 120.996094 62.964844 121.359375 62.683594 121.722656 62.402344 C 123.734375 60.769531 125.867188 59.316406 128.125 58.042969 C 130.378906 56.765625 132.722656 55.6875 135.160156 54.800781 C 137.59375 53.917969 140.085938 53.242188 142.632812 52.773438 C 145.179688 52.304688 147.75 52.046875 150.339844 52.007812 C 161.753906 52.007812 171.878906 56.34375 180.339844 63.257812 C 184.878906 66.988281 188.871094 71.234375 192.316406 75.996094 C 196.40625 81.628906 199.769531 87.667969 202.40625 94.113281 C 203.027344 95.730469 203.660156 97.289062 204.199219 98.894531 C 204.199219 98.894531 204.199219 98.976562 204.199219 99 C 205.5 102.761719 206.503906 106.601562 207.210938 110.519531 C 208.207031 116.21875 208.566406 121.957031 208.289062 127.734375 Z M 208.289062 127.734375 " fill-opacity="1" fill-rule="nonzero"/><path fill="#000000" d="M 214.992188 101.273438 C 213.765625 102.566406 212.433594 103.738281 210.996094 104.789062 C 210.890625 104.894531 210.339844 105.257812 209.648438 105.75 C 208.476562 106.5 207.304688 107.261719 206.132812 107.988281 C 201.152344 111.007812 195.925781 113.507812 190.453125 115.488281 C 187.515625 116.546875 184.527344 117.445312 181.496094 118.191406 C 178.464844 118.9375 175.402344 119.523438 172.308594 119.945312 C 169.214844 120.371094 166.105469 120.636719 162.984375 120.738281 C 159.863281 120.839844 156.746094 120.777344 153.632812 120.554688 C 150.515625 120.328125 147.421875 119.945312 144.347656 119.398438 C 141.273438 118.851562 138.234375 118.144531 135.234375 117.28125 C 132.234375 116.417969 129.285156 115.402344 126.390625 114.230469 C 123.496094 113.058594 120.671875 111.738281 117.914062 110.273438 C 115.300781 108.84375 112.757812 107.285156 110.308594 105.585938 C 109.476562 105.011719 108.679688 104.414062 107.871094 103.851562 C 105.722656 102.289062 103.664062 100.617188 101.695312 98.835938 C 100.757812 98.003906 99.820312 97.148438 98.941406 96.269531 C 102.117188 98.648438 105.535156 100.601562 109.195312 102.128906 C 116.753906 105.457031 125.753906 107.988281 134.507812 110.332031 C 142.109375 112.578125 149.871094 113.75 157.792969 113.847656 C 165.789062 113.890625 173.601562 112.71875 181.230469 110.332031 C 184.6875 109.214844 188.027344 107.820312 191.25 106.148438 C 192.785156 105.398438 194.320312 104.566406 195.9375 103.710938 C 198.996094 102.046875 201.667969 100.441406 204.140625 98.753906 C 207.257812 96.667969 210.242188 94.410156 213.09375 91.980469 C 214.113281 95 214.746094 98.097656 214.992188 101.273438 Z M 214.992188 101.273438 " fill-opacity="0.2" fill-rule="nonzero"/><path fill="#2d2d2d" d="M 233.367188 66.609375 C 233.296875 73.160156 227.144531 79.125 225.351562 80.8125 C 220.757812 85.171875 216.960938 88.757812 213.222656 91.921875 L 213.117188 92.003906 C 210.265625 94.433594 207.28125 96.691406 204.164062 98.777344 C 201.667969 100.464844 198.996094 102.070312 195.960938 103.734375 C 194.378906 104.589844 192.84375 105.421875 191.273438 106.171875 C 188.050781 107.84375 184.710938 109.238281 181.253906 110.355469 C 173.625 112.742188 165.8125 113.914062 157.816406 113.871094 C 149.894531 113.773438 142.132812 112.601562 134.53125 110.355469 C 125.777344 107.90625 116.777344 105.421875 109.21875 102.152344 C 105.558594 100.625 102.140625 98.671875 98.964844 96.292969 C 98.648438 96.023438 98.34375 95.800781 98.027344 95.53125 C 96.253906 94.15625 94.742188 92.539062 93.496094 90.675781 C 92.25 88.808594 91.328125 86.796875 90.738281 84.632812 C 87.949219 73.570312 96.023438 62.589844 97.265625 60.9375 C 99.175781 58.496094 101.367188 56.339844 103.839844 54.472656 C 106.3125 52.605469 108.984375 51.089844 111.855469 49.921875 C 122.777344 45.304688 127.839844 48.914062 151.59375 49.921875 C 172.6875 50.835938 183.234375 51.304688 193.230469 47.402344 C 197.261719 45.820312 204.785156 42.339844 206.121094 44.214844 C 207.1875 45.714844 204.09375 50.179688 203.367188 51.246094 C 200.648438 55.160156 198.363281 56.226562 198.679688 57.105469 C 199.277344 58.605469 205.875 57.878906 211.371094 56.273438 C 217.230469 54.5625 219.421875 52.535156 220.453125 53.519531 C 221.859375 54.84375 219.761719 60.550781 216.222656 64.300781 C 213.679688 67.019531 211.324219 67.816406 211.535156 68.730469 C 211.875 69.984375 216.410156 70.417969 220.617188 69.351562 C 227.261719 67.699219 230.636719 62.835938 232.511719 64.066406 C 233.027344 64.382812 233.390625 65.0625 233.367188 66.609375 Z M 233.367188 66.609375 " fill-opacity="1" fill-rule="nonzero"/></svg>